<?xml version="1.0" standalone="no"?>
<!DOCTYPE svg PUBLIC "-//W3C//DTD SVG 20010904//EN"
 "http://www.w3.org/TR/2001/REC-SVG-20010904/DTD/svg10.dtd">
<svg version="1.0" xmlns="http://www.w3.org/2000/svg"
 width="800.000000pt" height="800.000000pt" viewBox="0 0 800.000000 800.000000"
 preserveAspectRatio="xMidYMid meet">
<metadata>
Created by potrace 1.15, written by Peter Selinger 2001-2017
</metadata>
<g transform="translate(0.000000,800.000000) scale(0.100000,-0.100000)"
fill="#000000" stroke="none">
<path d="M0 4000 l0 -4000 4000 0 4000 0 0 4000 0 4000 -4000 0 -4000 0 0
-4000z m6092 3475 c400 -53 763 -249 1016 -550 185 -219 299 -454 354 -728
l23 -112 0 -2070 c0 -1943 -1 -2076 -18 -2162 -26 -137 -62 -256 -112 -368
-215 -481 -625 -811 -1153 -928 -96 -21 -107 -21 -1746 -24 -908 -2 -1648 -2
-1645 0 2 3 326 186 719 407 393 221 728 410 743 419 27 17 21 17 -136 13
-227 -6 -542 27 -742 79 -121 32 -324 105 -457 164 -140 63 -288 143 -288 155
0 4 -29 26 -64 49 -157 98 -431 353 -577 536 -156 193 -337 537 -424 804 -11
35 -29 64 -49 80 -322 269 -767 730 -969 1007 l-37 52 0 788 c0 434 5 845 10
914 16 219 65 402 160 590 166 331 417 579 744 736 84 40 250 104 271 104 1 0
-11 -64 -26 -142 -29 -149 -65 -373 -74 -468 -21 -220 -26 -302 -32 -510 -5
-205 6 -546 23 -715 15 -147 46 -391 59 -465 8 -47 15 -87 15 -90 0 -3 31 54
68 125 105 202 239 393 385 551 l66 71 37 179 c71 345 183 727 310 1051 63
163 179 427 197 450 10 14 242 16 2154 21 912 2 1100 0 1195 -13z"/>
<path d="M3930 5643 c-557 -72 -1043 -416 -1290 -911 -205 -412 -233 -891 -75
-1317 122 -330 135 -383 142 -607 7 -206 -1 -262 -79 -576 -33 -133 -59 -245
-56 -247 2 -3 141 58 309 134 321 147 415 181 563 208 115 20 325 22 483 4
239 -27 491 -3 718 69 846 269 1335 1185 1089 2037 -58 201 -146 382 -265 543
-85 114 -253 280 -369 363 -115 81 -320 185 -451 227 -182 59 -265 71 -484 75
-110 2 -216 1 -235 -2z m424 -368 c266 -47 498 -168 697 -365 157 -154 262
-325 328 -529 46 -142 56 -212 56 -401 0 -189 -10 -259 -56 -401 -65 -203
-170 -371 -328 -529 -199 -198 -431 -319 -704 -366 -139 -24 -398 -15 -532 19
-507 130 -890 538 -981 1047 -22 125 -22 335 0 460 96 536 529 971 1061 1064
109 19 351 20 459 1z"/>
<path d="M3510 4965 c-228 -141 -414 -374 -494 -622 -17 -52 -57 -235 -53
-239 1 -2 45 9 97 22 238 63 564 102 903 111 130 3 237 9 237 13 0 10 -201
300 -264 380 -125 160 -325 380 -345 380 -4 0 -40 -20 -81 -45z"/>
<path d="M3758 3743 c-100 -207 -182 -410 -231 -573 -53 -176 -55 -167 28
-212 96 -52 211 -96 319 -120 109 -25 354 -30 451 -9 76 16 183 47 227 65 l34
15 -84 88 c-202 212 -481 595 -620 851 l-39 72 -85 -177z"/>
</g>
</svg>
